<svg width="72" height="72" viewBox="0 0 72 72" fill="none" xmlns="http://www.w3.org/2000/svg">
<g filter="url(#filter0_d_20301_21)">
<circle cx="36" cy="32" r="32" fill="#FEF5EC"/>
<path d="M44.6033 40.6035C44.6033 39.6764 45.3549 38.9248 46.282 38.9248H48.8L48.7979 38.0854C48.0329 37.0665 46.8154 36.4067 45.4426 36.4067C44.148 36.4067 42.9926 36.9943 42.2238 37.9163C41.9094 38.2932 41.4406 38.5051 40.9501 38.5051H25.7181C24.5593 38.5051 23.6197 39.4447 23.6197 40.6035C23.6197 41.7622 24.5593 42.7018 25.7181 42.7018H40.9501C41.4406 42.7018 41.9094 42.9138 42.2238 43.2906C42.9926 44.2126 44.148 44.8002 45.4426 44.8002C46.8154 44.8002 48.0329 44.1405 48.7979 43.1215L48.8 42.2821H46.282C45.3549 42.2821 44.6033 41.5305 44.6033 40.6035Z" fill="#F4A45D"/>
<path d="M44.6033 35.6448V33.8884H32.8525V37.6655H40.9501C41.1972 37.6655 41.4268 37.5606 41.5791 37.378C41.7672 37.1526 41.9766 36.952 42.1965 36.7657C41.8859 36.6427 41.6656 36.341 41.6656 35.9868C41.6656 35.5231 42.0412 35.1474 42.5049 35.1474C42.9687 35.1474 43.3443 35.5231 43.3443 35.9868C43.3443 36.0015 43.3409 36.0149 43.3401 36.0292C43.74 35.8449 44.1652 35.719 44.6033 35.6448ZM34.5312 37.2458H33.6918V36.4065H34.5312V37.2458ZM34.5312 35.5671H33.6918V34.7278H34.5312V35.5671ZM39.1476 36.8261C38.6838 36.8261 38.3082 36.4505 38.3082 35.9868C38.3082 35.5231 38.6838 35.1474 39.1476 35.1474C39.6113 35.1474 39.9869 35.5231 39.9869 35.9868C39.9869 36.4505 39.6113 36.8261 39.1476 36.8261Z" fill="#F4A45D"/>
<path d="M25.0982 26.9005C25.1733 27.1355 25.2724 27.3731 25.3936 27.6081L25.5002 27.8146L24.9773 28.6938L26.2964 30.0128L27.176 29.4899L27.3829 29.5973C27.6171 29.7182 27.8546 29.8177 28.0892 29.8928L28.3108 29.9633L28.5622 30.9508H30.4276L30.679 29.9629L30.9006 29.8924C31.1352 29.8172 31.3727 29.7178 31.6069 29.5969L31.8138 29.4895L32.5251 29.9125H32.7933L34.0125 28.6938L33.4895 27.8146L33.5961 27.6081C33.7174 27.3731 33.8165 27.1355 33.8916 26.9005L33.9625 26.6789L34.9508 26.428V24.5625L33.9629 24.3116L33.892 24.09C33.8169 23.855 33.7178 23.6174 33.5966 23.3824L33.49 23.1759L34.0129 22.2967L32.6938 20.9777L31.8142 21.5006L31.6073 21.3932C31.3731 21.2723 31.1356 21.1728 30.901 21.0977L30.6794 21.0272L30.428 20.0393H28.5626L28.3112 21.0272L28.0892 21.0977C27.8546 21.1728 27.6171 21.2723 27.3829 21.3932L27.176 21.5006L26.2968 20.9777L24.9778 22.2967L25.5007 23.1759L25.3941 23.3824C25.2728 23.6174 25.1737 23.855 25.0986 24.09L25.0273 24.3116L24.0394 24.5621V26.4276L25.0273 26.6785L25.0982 26.9005ZM29.4951 22.1377C31.3492 22.1377 32.8525 23.6409 32.8525 25.495C32.8525 27.3492 31.3492 28.8524 29.4951 28.8524C27.641 28.8524 26.1377 27.3492 26.1377 25.495C26.1377 23.6409 27.641 22.1377 29.4951 22.1377Z" fill="#F4A45D"/>
<path d="M44.6033 28.8525H35.0402L32.8525 31.0403V33.0493H44.6033V28.8525ZM34.9508 31.7902C34.4871 31.7902 34.1115 31.4146 34.1115 30.9509C34.1115 30.4872 34.4871 30.1116 34.9508 30.1116C35.4146 30.1116 35.7902 30.4872 35.7902 30.9509C35.7902 31.4146 35.4146 31.7902 34.9508 31.7902ZM38.3082 31.7902C37.8445 31.7902 37.4689 31.4146 37.4689 30.9509C37.4689 30.4872 37.8445 30.1116 38.3082 30.1116C38.772 30.1116 39.1476 30.4872 39.1476 30.9509C39.1476 31.4146 38.772 31.7902 38.3082 31.7902ZM43.764 32.2099H42.9246V31.3706H43.764V32.2099ZM43.764 30.5312H42.9246V29.6919H43.764V30.5312Z" fill="#F4A45D"/>
<path d="M35.7901 27.0802L34.6142 27.3794C34.5643 27.5129 34.5085 27.6476 34.4464 27.7806L34.5844 28.0131H44.6033V24.2361C44.6033 24.0044 44.4148 23.8164 44.1836 23.8164H35.4229L35.7901 23.91V27.0802ZM42.5049 25.0754C42.9686 25.0754 43.3442 25.451 43.3442 25.9148C43.3442 26.3785 42.9686 26.7541 42.5049 26.7541C42.0412 26.7541 41.6655 26.3785 41.6655 25.9148C41.6655 25.451 42.0412 25.0754 42.5049 25.0754ZM39.1475 25.0754C39.6113 25.0754 39.9869 25.451 39.9869 25.9148C39.9869 26.3785 39.6113 26.7541 39.1475 26.7541C38.6838 26.7541 38.3082 26.3785 38.3082 25.9148C38.3082 25.451 38.6838 25.0754 39.1475 25.0754Z" fill="#F4A45D"/>
<path d="M29.4951 27.1738C30.4222 27.1738 31.1738 26.4222 31.1738 25.4951C31.1738 24.568 30.4222 23.8164 29.4951 23.8164C28.568 23.8164 27.8164 24.568 27.8164 25.4951C27.8164 26.4222 28.568 27.1738 29.4951 27.1738Z" fill="#F4A45D"/>
<path d="M26.5574 34.728C25.8632 34.728 25.2983 35.2929 25.2983 35.987C25.2983 36.6812 25.8632 37.2461 26.5574 37.2461C27.1038 37.2461 27.5654 36.894 27.7392 36.4067H32.0131V35.5674H27.7392C27.5654 35.0801 27.1038 34.728 26.5574 34.728Z" fill="#F4A45D"/>
<path d="M25.6408 33.469H32.0131V32.6296H25.6408C25.4671 32.1424 25.0054 31.7903 24.459 31.7903C23.7649 31.7903 23.2 32.3552 23.2 33.0493C23.2 33.7434 23.7649 34.3083 24.459 34.3083C25.0054 34.3083 25.4671 33.9562 25.6408 33.469Z" fill="#F4A45D"/>
<path d="M42.5049 21.6408V22.977H43.3443V21.6408C43.8315 21.467 44.1836 21.0054 44.1836 20.459C44.1836 19.7648 43.6187 19.2 42.9246 19.2C42.2305 19.2 41.6656 19.7648 41.6656 20.459C41.6656 21.0054 42.0177 21.467 42.5049 21.6408Z" fill="#F4A45D"/>
<path d="M38.3082 21.6408V22.977H39.1476V21.6408C39.6348 21.467 39.9869 21.0054 39.9869 20.459C39.9869 19.7648 39.422 19.2 38.7279 19.2C38.0338 19.2 37.4689 19.7648 37.4689 20.459C37.4689 21.0054 37.821 21.467 38.3082 21.6408Z" fill="#F4A45D"/>
</g>
<defs>
<filter id="filter0_d_20301_21" x="0" y="0" width="72" height="72" filterUnits="userSpaceOnUse" color-interpolation-filters="sRGB">
<feFlood flood-opacity="0" result="BackgroundImageFix"/>
<feColorMatrix in="SourceAlpha" type="matrix" values="0 0 0 0 0 0 0 0 0 0 0 0 0 0 0 0 0 0 127 0" result="hardAlpha"/>
<feOffset dy="4"/>
<feGaussianBlur stdDeviation="2"/>
<feComposite in2="hardAlpha" operator="out"/>
<feColorMatrix type="matrix" values="0 0 0 0 0 0 0 0 0 0 0 0 0 0 0 0 0 0 0.25 0"/>
<feBlend mode="normal" in2="BackgroundImageFix" result="effect1_dropShadow_20301_21"/>
<feBlend mode="normal" in="SourceGraphic" in2="effect1_dropShadow_20301_21" result="shape"/>
</filter>
</defs>
</svg>
